<?xml version="1.0" encoding="utf-8"?>
<!-- Generator: Adobe Illustrator 25.4.1, SVG Export Plug-In . SVG Version: 6.00 Build 0)  -->
<svg version="1.1" id="Layer_1" xmlns="http://www.w3.org/2000/svg" xmlns:xlink="http://www.w3.org/1999/xlink" x="0px" y="0px"
	 viewBox="0 0 39 35" style="enable-background:new 0 0 39 35;" xml:space="preserve">
<style type="text/css">
	.st0{fill:#5664E8;}
</style>
<g>
	<path class="st0" d="M33.6,25c0.2,0,0.5,0.1,0.6,0.3c0.2,0.2,0.3,0.4,0.3,0.6v1.9c0,0.3-0.1,0.5-0.3,0.7s-0.4,0.2-0.6,0.2H13.9v0.9
		c0,0.3-0.1,0.5-0.3,0.7c-0.2,0.2-0.4,0.2-0.6,0.2h-1.9c-0.3,0-0.5-0.1-0.7-0.2c-0.2-0.2-0.2-0.4-0.2-0.7v-0.9H5.4
		c-0.3,0-0.5-0.1-0.7-0.2c-0.2-0.2-0.2-0.4-0.2-0.7v-1.9c0-0.2,0.1-0.5,0.2-0.6C4.9,25.1,5.1,25,5.4,25h4.7v-0.9
		c0-0.2,0.1-0.5,0.2-0.6c0.2-0.2,0.4-0.3,0.7-0.3h1.9c0.2,0,0.5,0.1,0.6,0.3c0.2,0.2,0.3,0.4,0.3,0.6V25H33.6z M33.6,15.6
		c0.2,0,0.5,0.1,0.6,0.3c0.2,0.2,0.3,0.4,0.3,0.6v1.9c0,0.3-0.1,0.5-0.3,0.7c-0.2,0.2-0.4,0.2-0.6,0.2h-4.7v0.9
		c0,0.3-0.1,0.5-0.3,0.7c-0.2,0.2-0.4,0.2-0.6,0.2h-1.9c-0.3,0-0.5-0.1-0.7-0.2s-0.2-0.4-0.2-0.7v-0.9H5.4c-0.3,0-0.5-0.1-0.7-0.2
		c-0.2-0.2-0.2-0.4-0.2-0.7v-1.9c0-0.2,0.1-0.5,0.2-0.6c0.2-0.2,0.4-0.3,0.7-0.3h19.7v-0.9c0-0.2,0.1-0.5,0.2-0.6
		c0.2-0.2,0.4-0.3,0.7-0.3h1.9c0.2,0,0.5,0.1,0.6,0.3c0.2,0.2,0.3,0.4,0.3,0.6v0.9H33.6z M33.6,6.2c0.2,0,0.5,0.1,0.6,0.3
		c0.2,0.2,0.3,0.4,0.3,0.6v1.9c0,0.3-0.1,0.5-0.3,0.7C34,9.9,33.8,10,33.6,10H21.4v0.9c0,0.3-0.1,0.5-0.3,0.7
		c-0.2,0.2-0.4,0.2-0.6,0.2h-1.9c-0.3,0-0.5-0.1-0.7-0.2c-0.2-0.2-0.2-0.4-0.2-0.7V10H5.4c-0.3,0-0.5-0.1-0.7-0.2
		C4.6,9.6,4.5,9.4,4.5,9.1V7.2c0-0.2,0.1-0.5,0.2-0.6c0.2-0.2,0.4-0.3,0.7-0.3h12.2V5.3c0-0.2,0.1-0.5,0.2-0.6
		c0.2-0.2,0.4-0.3,0.7-0.3h1.9c0.2,0,0.5,0.1,0.6,0.3c0.2,0.2,0.3,0.4,0.3,0.6v0.9H33.6z"/>
</g>
</svg>
