<svg width="16" height="27" viewBox="0 0 16 27" fill="none" xmlns="http://www.w3.org/2000/svg">
<path d="M6.74529 19.0384C6.7538 19.0552 6.77105 19.0658 6.78989 19.0658H8.6395C8.65504 19.0658 8.66969 19.0586 8.67915 19.0463C8.68862 19.0339 8.69181 19.0179 8.6878 19.0029C8.57198 18.5692 8.5138 18.1216 8.51486 17.6721V17.6719C8.51486 16.7896 8.90414 16.0458 9.49504 15.3589C10.0426 14.7222 10.7596 14.1385 11.4937 13.5408C11.553 13.4926 11.6123 13.4442 11.6718 13.3958L11.6877 13.383C13.6488 11.8186 15.8974 10.0247 15.8974 7.00198C15.8974 5.6481 15.5844 4.57876 15.066 3.7369C14.5477 2.89517 13.8259 2.28366 13.0125 1.84263C11.3872 0.961436 9.39288 0.758891 7.90951 0.758861C5.49795 0.727634 3.11404 1.28464 0.956436 2.38342C0.935372 2.39415 0.924698 2.41816 0.930848 2.44099L1.41508 4.23821C1.41896 4.2526 1.42906 4.26451 1.44262 4.2707C1.45619 4.27688 1.4718 4.27668 1.48521 4.27017C3.35749 3.36028 5.40644 2.89164 7.48034 2.89894H7.48051C9.73033 2.89894 11.2431 3.49362 12.193 4.35532C13.1426 5.21687 13.535 6.35023 13.535 7.43914C13.535 8.52373 13.0407 9.45162 12.3266 10.2794C11.6209 11.0975 10.7045 11.8134 9.84758 12.4829L9.81533 12.5081L9.78681 12.5303C8.93157 13.1985 8.0587 13.8803 7.39771 14.6148C6.72923 15.3576 6.27154 16.1605 6.27154 17.0648L6.27154 17.0649C6.27381 17.7517 6.43617 18.4281 6.74529 19.0384ZM7.09939 26.3279C7.44774 26.5695 7.85819 26.7012 8.27958 26.7065C8.57217 26.7346 8.86722 26.6964 9.14363 26.5947C9.42071 26.4928 9.67214 26.3295 9.87991 26.1169C10.0877 25.9042 10.2466 25.6473 10.3455 25.3647C10.444 25.0827 10.4803 24.7821 10.4517 24.4842C10.4449 24.0551 10.3144 23.6374 10.0764 23.2832C9.83792 22.9284 9.50211 22.6531 9.11081 22.4918C8.7195 22.3305 8.29018 22.2904 7.87659 22.3766C7.463 22.4628 7.08365 22.6714 6.78592 22.9761C6.4882 23.2809 6.2853 23.6683 6.20246 24.0898C6.11961 24.5113 6.16046 24.9484 6.31993 25.3465C6.47941 25.7445 6.75048 26.0859 7.09939 26.3279Z" fill="#5664E8" stroke="#5664E8" stroke-width="0.1" stroke-linejoin="round"/>
</svg>
