<svg xmlns="http://www.w3.org/2000/svg" viewBox="0 0 21.72 26"><defs><style>.cls-1{fill:#fff;}</style></defs><g id="Layer_2" data-name="Layer 2"><g id="Layer_1-2" data-name="Layer 1"><path class="cls-1" d="M0,24V2A2.22,2.22,0,0,1,2.4,0h8.52a2.56,2.56,0,0,1,2,.93l8.4,11a1.65,1.65,0,0,1,0,2.06l-8.4,11a2.56,2.56,0,0,1-2,.93H2.4A2.22,2.22,0,0,1,0,24Zm5.82-8.91V8.94H5.14a10,10,0,0,1-1.79.82l.12.81A10.34,10.34,0,0,0,4.85,10v5.1H3.19V16H7.31v-.87Zm3,.87h5v-.89H12.29c-.78,0-1.25,0-1.76,0,1.29-1,2.91-2.36,2.91-3.93A2.16,2.16,0,0,0,11.1,8.88a3.63,3.63,0,0,0-2.24.79l.36.83A2.77,2.77,0,0,1,11,9.82a1.34,1.34,0,0,1,1.44,1.5c0,1.18-1.3,2.44-2.79,3.5l-.77.55Z"/></g></g></svg>