<svg xmlns="http://www.w3.org/2000/svg" viewBox="0 0 21.72 26"><defs><style>.cls-1{fill:#fff;}</style></defs><g id="Layer_2" data-name="Layer 2"><g id="Layer_1-2" data-name="Layer 1"><path class="cls-1" d="M21.72,2V24a2.21,2.21,0,0,1-2.4,2H10.8a2.56,2.56,0,0,1-2-.93L.36,14A1.65,1.65,0,0,1,.36,12l8.4-11a2.56,2.56,0,0,1,2-.93h8.52A2.21,2.21,0,0,1,21.72,2ZM10.55,15.13V8.94H9.86a9.59,9.59,0,0,1-1.78.82l.12.81A10.9,10.9,0,0,0,9.58,10v5.1H7.91V16H12v-.87Zm3,.87h5v-.89H17c-.78,0-1.24,0-1.76,0,1.3-1,2.92-2.36,2.92-3.93a2.16,2.16,0,0,0-2.34-2.33,3.69,3.69,0,0,0-2.25.79l.36.83a2.82,2.82,0,0,1,1.77-.68,1.34,1.34,0,0,1,1.44,1.5c0,1.18-1.31,2.44-2.8,3.5l-.77.55Z"/></g></g></svg>