<svg width="39" height="39" viewBox="0 0 39 39" fill="none" xmlns="http://www.w3.org/2000/svg">
<circle cx="7.96855" cy="22.3877" r="2.65617" fill="#5664E8"/>
<circle cx="12.522" cy="28.459" r="2.65617" fill="#5664E8"/>
<circle cx="19.3521" cy="32.2535" r="2.65617" fill="#5664E8"/>
<circle cx="30.7358" cy="22.3877" r="2.65617" fill="#5664E8"/>
<circle cx="26.1823" cy="28.459" r="2.65617" fill="#5664E8"/>
<path fill-rule="evenodd" clip-rule="evenodd" d="M35.7042 19.3521C35.7042 28.3831 28.3831 35.7042 19.3521 35.7042C10.3211 35.7042 3 28.3831 3 19.3521C3 12.0402 7.79908 5.84926 14.4192 3.75718V8.34799H23.5261V3.53754C30.5352 5.38253 35.7042 11.7637 35.7042 19.3521ZM38.7042 19.3521C38.7042 30.04 30.04 38.7042 19.3521 38.7042C8.66423 38.7042 0 30.04 0 19.3521C0 8.66423 8.66423 0 19.3521 0C30.04 0 38.7042 8.66423 38.7042 19.3521Z" fill="#5664E8"/>
</svg>
