<svg width="82" height="56" viewBox="0 0 82 56" fill="none" xmlns="http://www.w3.org/2000/svg">
<g clip-path="url(#clip0)">
<path d="M0.000151317 29.5334C0.000151928 15.5556 8.59235 10.7333 21.4476 7.77778C22.5694 7.53333 25.1496 6.93333 34.5948 1.11111C35.2499 0.717304 35.9958 0.496523 36.7616 0.469293C37.5274 0.442062 38.2876 0.60968 38.9695 0.955946C39.8055 1.33766 40.537 1.91166 41.1029 2.63075C41.6689 3.34984 42.0527 4.19283 42.2225 5.08898C42.6712 7.9112 39.979 11.0888 37.197 13.2221C42.4244 13.4221 52.0491 13.4443 60.8436 13.2221C61.7733 13.1713 62.7038 13.3046 63.5812 13.6133C64.4586 13.922 65.2656 14.4002 65.9545 15.0206C66.6435 15.641 67.2008 16.3908 67.5944 17.2266C67.9881 18.0624 68.2101 18.9673 68.2473 19.8888C68.2003 21.7828 67.3968 23.5812 66.0131 24.8893C64.6294 26.1974 62.7784 26.9086 60.8661 26.8669L56.0653 26.8669C57.0841 28.0081 57.65 29.4765 57.658 30.9999C57.6605 32.3554 57.2265 33.6767 56.4196 34.7716C55.6128 35.8665 54.4751 36.6784 53.171 37.0893C53.915 38.1715 54.3208 39.4466 54.3377 40.7558C54.3477 42.2767 53.801 43.7496 52.7986 44.9018C51.7962 46.054 50.4063 46.8076 48.8862 47.0226C49.3536 47.8514 49.6003 48.7842 49.6037 49.7336L49.6037 50.3114C49.5978 51.7654 49.0121 53.1581 47.9742 54.1862C46.9362 55.2143 45.5302 55.7944 44.0623 55.8002L20.3708 55.8002C10.2077 55.8002 0.179678 42.8446 0.0450656 29.6224L0.000151317 29.5334ZM39.3288 5.71126L39.3288 5.51107C39.2292 5.0928 39.0332 4.70315 38.757 4.37175C38.4808 4.04034 38.1312 3.77637 37.7355 3.60026C37.49 3.47182 37.2167 3.40441 36.9391 3.40441C36.6615 3.40441 36.3881 3.47182 36.1427 3.60026C26.2937 9.68915 23.4669 10.2668 22.1208 10.6445C8.16619 13.8223 2.93873 18.9557 2.93873 29.5557L2.93873 29.7781C2.93873 41.3114 11.9127 53.0669 20.3259 53.0669C20.3259 53.0669 43.8828 53.0669 44.0174 53.0669C44.7096 53.0611 45.3714 52.7846 45.8588 52.2976C46.3463 51.8107 46.6202 51.1523 46.6202 50.4666L46.6202 49.8888C46.6202 49.2051 46.3458 48.5498 45.8578 48.0664C45.3697 47.583 44.7076 47.3112 44.0174 47.3112L40.3607 47.3112C40.1386 47.3555 39.9097 47.3555 39.6876 47.3112L39.4855 47.3112C39.1924 47.3076 38.9073 47.2167 38.6672 47.0502C38.427 46.8837 38.2434 46.6496 38.1397 46.378C38.031 46.1117 38.0047 45.8192 38.0646 45.5382C38.1246 45.2571 38.2679 45.0004 38.476 44.8003C38.6531 44.6309 38.8653 44.5011 39.0977 44.4206C39.33 44.34 39.5772 44.3101 39.8223 44.3332C39.9641 44.3212 40.1066 44.3212 40.2484 44.3332L48.437 44.3332C49.2534 44.215 49.9991 43.808 50.5354 43.1868C51.0717 42.5657 51.3624 41.7732 51.3537 40.9559C51.3631 40.1362 51.0729 39.3406 50.537 38.7158C50.0011 38.091 49.2553 37.6791 48.437 37.5559L44.0848 37.5559C44.0041 37.5787 43.9189 37.5787 43.8383 37.5559C43.6166 37.5549 43.3976 37.5068 43.1963 37.4148C42.9951 37.3228 42.8162 37.189 42.6716 37.0226C42.5352 36.8485 42.44 36.6461 42.3934 36.4307C42.3468 36.2152 42.3497 35.9921 42.4021 35.778C42.4718 35.4827 42.6251 35.213 42.8436 35.0005C43.0621 34.7881 43.3368 34.6415 43.6362 34.5779C43.7481 34.5669 43.8606 34.5669 43.9725 34.5779L51.8696 34.5779C52.6801 34.4597 53.42 34.0544 53.9521 33.4375C54.4842 32.8205 54.7726 32.0337 54.7638 31.2223C54.7847 30.4194 54.4978 29.6384 53.9609 29.0365C53.4239 28.4345 52.6767 28.0563 51.8696 27.978L44.466 27.978C44.0979 27.9791 43.7434 27.8422 43.4729 27.5949C43.2025 27.3476 43.0362 27.0079 43.0079 26.6444L43.0079 26.1556L43.0079 25.8002C42.9786 25.3911 43.1067 24.9861 43.3667 24.6669C43.5068 24.5157 43.6767 24.3945 43.8657 24.3104C44.0547 24.2264 44.2588 24.1813 44.466 24.1781L61.0233 24.1781C62.1623 24.2263 63.2742 23.8254 64.1152 23.0632C64.9563 22.3009 65.4579 21.2392 65.5103 20.1112C65.4734 19.5659 65.3275 19.0335 65.0814 18.5444C64.8354 18.0552 64.4942 17.6194 64.0769 17.2618C63.6596 16.9043 63.1747 16.6323 62.6506 16.4616C62.1265 16.2908 61.5734 16.2245 61.0233 16.2668C33.1366 16.6446 32.3738 15.778 31.8578 15.2002C31.7018 15.0146 31.5936 14.794 31.5428 14.5578C31.492 14.3217 31.4998 14.0768 31.5658 13.8444C31.6207 13.613 31.737 13.4005 31.9027 13.2286C32.0684 13.0567 32.2777 12.9318 32.5085 12.8668C34.4155 12.1556 39.3288 7.91126 39.3288 5.71126Z" fill="black"/>
<path d="M51.937 11.022C51.936 10.7784 51.9876 10.5379 52.0882 10.3156C52.1888 10.0934 52.3361 9.89482 52.5203 9.73348C55.0495 7.56485 58.284 6.3733 61.6291 6.37791C65.3223 6.38378 68.8625 7.83957 71.474 10.4263C74.0855 13.013 75.5552 16.5196 75.5612 20.1778C75.5612 23.8399 74.0938 27.3525 71.4817 29.944C68.8695 32.5355 65.3262 33.9941 61.6291 34C61.4003 34 61.1736 33.955 60.9625 33.8676C60.7514 33.7802 60.5602 33.6523 60.3994 33.4911C60.2387 33.3298 60.1119 33.1386 60.0264 32.9285C59.941 32.7183 59.8986 32.4931 59.9016 32.2666C59.9016 31.8128 60.0837 31.3776 60.4077 31.0567C60.7316 30.7358 61.1709 30.5554 61.6291 30.5554C64.406 30.5496 67.0676 29.4546 69.0311 27.5096C70.9947 25.5647 72.1001 22.9284 72.1061 20.1778C72.1001 17.4273 70.9947 14.7909 69.0311 12.846C67.0676 10.9011 64.406 9.80609 61.6291 9.80022C59.116 9.80814 56.6886 10.7065 54.7863 12.3333C54.4365 12.6269 53.9844 12.7729 53.5271 12.7397C53.0697 12.7064 52.6435 12.4964 52.3407 12.1554C52.079 11.8346 51.9366 11.4345 51.937 11.022Z" fill="black"/>
<path d="M43.9502 10.5111C43.9504 10.2431 44.0285 9.98125 44.1747 9.75586C45.9752 6.76558 48.5325 4.29238 51.5937 2.58138C54.655 0.87038 58.1143 -0.0194376 61.6293 -2.01279e-06C67.0302 0.00588022 72.2079 2.13355 76.0269 5.91634C79.8459 9.69913 81.9939 14.8283 81.9999 20.1779C81.9999 25.5315 79.8548 30.6661 76.0351 34.4537C72.2154 38.2413 67.034 40.3723 61.6293 40.3781C60.6685 40.3787 59.7088 40.3117 58.7575 40.1779C58.5643 40.1507 58.3782 40.0861 58.2103 39.9875C58.0425 39.8889 57.896 39.7583 57.7793 39.6034C57.6625 39.4485 57.5778 39.2722 57.53 39.0847C57.4823 38.8973 57.4725 38.7025 57.501 38.5113C57.5285 38.3199 57.5937 38.1355 57.6933 37.9693C57.7928 37.803 57.9247 37.658 58.0811 37.5423C58.2374 37.4267 58.4155 37.3428 58.6047 37.2955C58.7939 37.2482 58.9906 37.2384 59.1836 37.2667C59.9942 37.3745 60.8115 37.4267 61.6293 37.4224C66.2447 37.4165 70.6693 35.5976 73.9329 32.3649C77.1966 29.1322 79.0329 24.7497 79.0388 20.1779C79.0329 15.6062 77.1966 11.2237 73.9329 7.99099C70.6693 4.75831 66.2447 2.93936 61.6293 2.93348C58.6243 2.92461 55.6686 3.69021 53.0529 5.15516C50.4371 6.62012 48.251 8.73404 46.7096 11.2891C46.6084 11.4544 46.4756 11.5981 46.318 11.7122C46.1604 11.8264 45.9814 11.9088 45.7916 11.9542C45.6019 11.9996 45.4049 12.0072 45.2121 11.977C45.0193 11.9468 44.8345 11.8792 44.6682 11.7779C44.4493 11.645 44.2686 11.4587 44.143 11.237C44.0173 11.0152 43.9507 10.7654 43.9502 10.5111Z" fill="black"/>
</g>
<defs>
<clipPath id="clip0">
<rect width="56" height="82" fill="white" transform="translate(82) rotate(90)"/>
</clipPath>
</defs>
</svg>
