<?xml version="1.0" encoding="utf-8"?>
<!-- Generator: Adobe Illustrator 25.4.1, SVG Export Plug-In . SVG Version: 6.00 Build 0)  -->
<svg version="1.1" id="Layer_1" xmlns="http://www.w3.org/2000/svg" xmlns:xlink="http://www.w3.org/1999/xlink" x="0px" y="0px"
	 viewBox="0 0 35 38" style="enable-background:new 0 0 35 38;" xml:space="preserve">
<style type="text/css">
	.st0{fill:url(#SVGID_1_);}
</style>
<g>
	
		<linearGradient id="SVGID_1_" gradientUnits="userSpaceOnUse" x1="19.3097" y1="30.9843" x2="7.1897" y2="5.2643" gradientTransform="matrix(1 0 0 -1 0 40)">
		<stop  offset="0" style="stop-color:#D165F6"/>
		<stop  offset="0.5169" style="stop-color:#5664E8"/>
		<stop  offset="0.9961" style="stop-color:#35F5E6"/>
	</linearGradient>
	<path class="st0" d="M29.2,16.6c0.6,0.4,1,0.9,1.2,1.5c0.2,0.6,0.2,1.3,0,1.9c-0.2,0.6-0.6,1.1-1.2,1.5L8.6,33.6
		c-0.6,0.4-1.2,0.5-1.9,0.4C6,33.8,5.5,33.5,5,33c-0.5-0.5-0.6-1.1-0.6-1.8V6.8c0-0.8,0.2-1.4,0.7-1.9s1-0.8,1.7-0.9
		c0.6-0.1,1.2,0,1.8,0.4L29.2,16.6z"/>
</g>
</svg>
