<svg width="82" height="56" viewBox="0 0 82 56" fill="none" xmlns="http://www.w3.org/2000/svg">
<g clip-path="url(#clip0)">
<path d="M81.9998 29.5334C81.9998 15.5556 73.4076 10.7333 60.5524 7.77778C59.4306 7.53334 56.8504 6.93334 47.4052 1.11112C46.7501 0.71731 46.0042 0.49653 45.2384 0.469299C44.4726 0.442069 43.7124 0.609687 43.0305 0.955953C42.1945 1.33767 41.463 1.91166 40.8971 2.63076C40.3311 3.34985 39.9473 4.19284 39.7775 5.08898C39.3288 7.9112 42.021 11.0888 44.803 13.2221C39.5756 13.4221 29.9509 13.4443 21.1564 13.2221C20.2267 13.1713 19.2962 13.3046 18.4188 13.6133C17.5414 13.922 16.7344 14.4002 16.0455 15.0206C15.3565 15.641 14.7992 16.3908 14.4056 17.2266C14.0119 18.0624 13.7899 18.9673 13.7527 19.8888C13.7997 21.7828 14.6032 23.5813 15.9869 24.8893C17.3706 26.1974 19.2216 26.9086 21.1339 26.8669L25.9347 26.8669C24.9159 28.0081 24.35 29.4765 24.3419 30.9999C24.3395 32.3554 24.7735 33.6767 25.5804 34.7716C26.3872 35.8665 27.5249 36.6784 28.829 37.0893C28.085 38.1715 27.6792 39.4466 27.6623 40.7558C27.6523 42.2767 28.199 43.7496 29.2014 44.9018C30.2038 46.054 31.5937 46.8076 33.1138 47.0226C32.6464 47.8514 32.3997 48.7842 32.3963 49.7336L32.3963 50.3114C32.4022 51.7654 32.9879 53.1581 34.0258 54.1862C35.0638 55.2143 36.4698 55.7944 37.9377 55.8002L61.6292 55.8002C71.7923 55.8002 81.8203 42.8446 81.9549 29.6224L81.9998 29.5334ZM42.6712 5.71127L42.6712 5.51107C42.7708 5.0928 42.9668 4.70316 43.243 4.37175C43.5192 4.04034 43.8688 3.77637 44.2645 3.60027C44.51 3.47183 44.7833 3.40441 45.0609 3.40441C45.3385 3.40441 45.6119 3.47183 45.8573 3.60027C55.7063 9.68916 58.5331 10.2668 59.8792 10.6445C73.8338 13.8223 79.0613 18.9557 79.0613 29.5557L79.0613 29.7781C79.0613 41.3114 70.0873 53.067 61.6741 53.067C61.6741 53.067 38.1172 53.067 37.9826 53.067C37.2903 53.0611 36.6286 52.7846 36.1411 52.2976C35.6537 51.8107 35.3798 51.1523 35.3798 50.4666L35.3798 49.8888C35.3798 49.2051 35.6542 48.5498 36.1422 48.0664C36.6303 47.583 37.2924 47.3112 37.9826 47.3112L41.6393 47.3112C41.8614 47.3555 42.0903 47.3555 42.3124 47.3112L42.5145 47.3112C42.8076 47.3076 43.0927 47.2167 43.3328 47.0502C43.573 46.8838 43.7566 46.6496 43.8603 46.378C43.969 46.1117 43.9953 45.8192 43.9353 45.5382C43.8754 45.2572 43.7321 45.0004 43.524 44.8004C43.3469 44.6309 43.1347 44.5011 42.9023 44.4206C42.67 44.34 42.4228 44.3101 42.1777 44.3332C42.0359 44.3212 41.8934 44.3212 41.7515 44.3332L33.563 44.3332C32.7466 44.215 32.0009 43.808 31.4646 43.1869C30.9283 42.5657 30.6376 41.7732 30.6463 40.956C30.6369 40.1362 30.927 39.3406 31.463 38.7158C31.9989 38.0911 32.7447 37.6791 33.563 37.5559L37.9152 37.5559C37.9959 37.5787 38.0811 37.5787 38.1617 37.5559C38.3834 37.5549 38.6024 37.5068 38.8037 37.4148C39.0049 37.3228 39.1838 37.189 39.3284 37.0226C39.4648 36.8485 39.56 36.6461 39.6066 36.4307C39.6532 36.2152 39.6502 35.9921 39.5979 35.778C39.5281 35.4827 39.3749 35.213 39.1564 35.0005C38.9379 34.7881 38.6632 34.6415 38.3638 34.5779C38.2519 34.5669 38.1394 34.5669 38.0275 34.5779L30.1304 34.5779C29.3199 34.4597 28.58 34.0545 28.0479 33.4375C27.5158 32.8206 27.2274 32.0337 27.2362 31.2223C27.2153 30.4194 27.5022 29.6384 28.0391 29.0365C28.5761 28.4345 29.3233 28.0563 30.1304 27.978L37.534 27.978C37.9021 27.9791 38.2566 27.8422 38.5271 27.5949C38.7975 27.3476 38.9638 27.0079 38.9921 26.6444L38.9921 26.1556L38.9921 25.8002C39.0214 25.3911 38.8933 24.9861 38.6333 24.6669C38.4932 24.5157 38.3233 24.3945 38.1343 24.3104C37.9453 24.2264 37.7412 24.1813 37.534 24.1781L20.9767 24.1781C19.8377 24.2263 18.7258 23.8254 17.8848 23.0632C17.0437 22.3009 16.5421 21.2392 16.4897 20.1112C16.5266 19.5659 16.6725 19.0335 16.9186 18.5444C17.1646 18.0552 17.5058 17.6194 17.9231 17.2618C18.3404 16.9043 18.8253 16.6324 19.3494 16.4616C19.8735 16.2908 20.4266 16.2245 20.9767 16.2668C48.8634 16.6446 49.6262 15.778 50.1422 15.2002C50.2982 15.0146 50.4064 14.794 50.4572 14.5578C50.508 14.3217 50.5002 14.0768 50.4342 13.8444C50.3793 13.613 50.263 13.4005 50.0973 13.2286C49.9316 13.0567 49.7223 12.9318 49.4915 12.8668C47.5845 12.1556 42.6712 7.91127 42.6712 5.71127Z" fill="black"/>
<path d="M30.063 11.022C30.064 10.7784 30.0124 10.5379 29.9118 10.3156C29.8112 10.0934 29.6639 9.89482 29.4797 9.73349C26.9505 7.56485 23.716 6.3733 20.3709 6.37791C16.6777 6.38379 13.1375 7.83957 10.526 10.4263C7.9145 13.013 6.44478 16.5196 6.43884 20.1778C6.43884 23.8399 7.90619 27.3525 10.5183 29.944C13.1305 32.5355 16.6738 33.9941 20.3709 34C20.5997 34 20.8264 33.955 21.0375 33.8676C21.2486 33.7802 21.4398 33.6523 21.6006 33.4911C21.7613 33.3298 21.8881 33.1386 21.9736 32.9285C22.059 32.7183 22.1014 32.4931 22.0984 32.2666C22.0984 31.8128 21.9163 31.3776 21.5923 31.0567C21.2684 30.7358 20.8291 30.5554 20.3709 30.5554C17.594 30.5496 14.9324 29.4546 12.9689 27.5096C11.0053 25.5647 9.89985 22.9284 9.89392 20.1778C9.89985 17.4273 11.0053 14.7909 12.9689 12.846C14.9324 10.9011 17.594 9.80609 20.3709 9.80022C22.884 9.80814 25.3114 10.7065 27.2137 12.3333C27.5635 12.627 28.0156 12.7729 28.4729 12.7397C28.9302 12.7064 29.3565 12.4964 29.6593 12.1554C29.921 11.8346 30.0634 11.4345 30.063 11.022Z" fill="black"/>
<path d="M38.0498 10.5111C38.0496 10.2431 37.9715 9.98126 37.8253 9.75586C36.0248 6.76558 33.4675 4.29238 30.4063 2.58138C27.345 0.870382 23.8857 -0.0194355 20.3707 -2.31932e-07C14.9698 0.00588153 9.79213 2.13355 5.97312 5.91634C2.1541 9.69913 0.00605975 14.8283 0.000121188 20.1779C0.000117684 25.5315 2.14524 30.6661 5.9649 34.4537C9.78456 38.2413 14.966 40.3723 20.3707 40.3781C21.3315 40.3787 22.2912 40.3117 23.2425 40.1779C23.4357 40.1507 23.6218 40.0861 23.7897 39.9875C23.9575 39.8889 24.104 39.7583 24.2207 39.6034C24.3375 39.4485 24.4222 39.2722 24.47 39.0847C24.5177 38.8973 24.5275 38.7025 24.499 38.5113C24.4715 38.3199 24.4063 38.1355 24.3067 37.9693C24.2072 37.803 24.0753 37.658 23.9189 37.5423C23.7626 37.4267 23.5845 37.3428 23.3953 37.2955C23.2061 37.2482 23.0094 37.2384 22.8164 37.2667C22.0058 37.3745 21.1885 37.4267 20.3707 37.4224C15.7553 37.4165 11.3307 35.5976 8.06709 32.3649C4.80345 29.1322 2.96709 24.7497 2.96115 20.1779C2.96709 15.6062 4.80345 11.2237 8.06709 7.99099C11.3307 4.75831 15.7553 2.93936 20.3707 2.93348C23.3757 2.92462 26.3314 3.69021 28.9471 5.15516C31.5629 6.62012 33.749 8.73405 35.2904 11.2891C35.3916 11.4544 35.5244 11.5981 35.682 11.7122C35.8396 11.8264 36.0186 11.9088 36.2084 11.9542C36.3981 11.9996 36.5951 12.0072 36.7879 11.977C36.9807 11.9468 37.1655 11.8792 37.3318 11.7779C37.5507 11.645 37.7313 11.4587 37.857 11.237C37.9827 11.0152 38.0493 10.7654 38.0498 10.5111Z" fill="black"/>
</g>
<defs>
<clipPath id="clip0">
<rect width="56" height="82" fill="white" transform="matrix(-4.37114e-08 1 1 4.37114e-08 0 0)"/>
</clipPath>
</defs>
</svg>
