<svg xmlns="http://www.w3.org/2000/svg" viewBox="0 0 90 99"><defs><style>.cls-1{fill:#fff;}</style></defs><g id="Layer_2" data-name="Layer 2"><g id="Layer_1-2" data-name="Layer 1"><rect class="cls-1" x="0.5" y="14.5" width="27" height="84" rx="10.69"/><path d="M16.81,15A10.2,10.2,0,0,1,27,25.19V87.81A10.2,10.2,0,0,1,16.81,98H11.19A10.2,10.2,0,0,1,1,87.81V25.19A10.2,10.2,0,0,1,11.19,15h5.62m0-1H11.19A11.19,11.19,0,0,0,0,25.19V87.81A11.19,11.19,0,0,0,11.19,99h5.62A11.19,11.19,0,0,0,28,87.81V25.19A11.19,11.19,0,0,0,16.81,14Z"/><rect class="cls-1" x="31.5" y="0.5" width="27" height="84" rx="10.69"/><path d="M47.81,1A10.2,10.2,0,0,1,58,11.19V73.81A10.2,10.2,0,0,1,47.81,84H42.19A10.2,10.2,0,0,1,32,73.81V11.19A10.2,10.2,0,0,1,42.19,1h5.62m0-1H42.19A11.19,11.19,0,0,0,31,11.19V73.81A11.19,11.19,0,0,0,42.19,85h5.62A11.19,11.19,0,0,0,59,73.81V11.19A11.19,11.19,0,0,0,47.81,0Z"/><rect class="cls-1" x="62.5" y="14.5" width="27" height="84" rx="10.69"/><path d="M78.81,15A10.2,10.2,0,0,1,89,25.19V87.81A10.2,10.2,0,0,1,78.81,98H73.19A10.2,10.2,0,0,1,63,87.81V25.19A10.2,10.2,0,0,1,73.19,15h5.62m0-1H73.19A11.19,11.19,0,0,0,62,25.19V87.81A11.19,11.19,0,0,0,73.19,99h5.62A11.19,11.19,0,0,0,90,87.81V25.19A11.19,11.19,0,0,0,78.81,14Z"/></g></g></svg>