<svg id="Layer_1" data-name="Layer 1" xmlns="http://www.w3.org/2000/svg" xmlns:xlink="http://www.w3.org/1999/xlink" viewBox="0 0 409.52 133.76"><defs><style>.cls-1{fill:#fff;}.cls-2{fill:url(#linear-gradient);}</style><linearGradient id="linear-gradient" x1="18.59" y1="36.73" x2="135.82" y2="36.73" gradientUnits="userSpaceOnUse"><stop offset="0" stop-color="#35f5e6"/><stop offset="0.51" stop-color="#5664e8"/><stop offset="1" stop-color="#d165f6"/></linearGradient></defs><path class="cls-1" d="M146.49,119.51a15.85,15.85,0,0,1-8.52-2.38,18.27,18.27,0,0,1-6.19-6.32,16.69,16.69,0,0,1-2.34-8.7l.09-27.44A16.7,16.7,0,0,1,131.82,66,17.54,17.54,0,0,1,138,59.78a16.25,16.25,0,0,1,8.48-2.33A16,16,0,0,1,155,59.78a17.87,17.87,0,0,1,6.1,6.24,16.7,16.7,0,0,1,2.29,8.65l.09,27.44a16.94,16.94,0,0,1-2.3,8.7,17.87,17.87,0,0,1-6.14,6.32A15.88,15.88,0,0,1,146.49,119.51Zm0-10.47a6,6,0,0,0,4.55-2.12,6.92,6.92,0,0,0,1.94-4.81l-.08-27.44a6.92,6.92,0,0,0-1.82-4.84,5.94,5.94,0,0,0-4.59-2,6.18,6.18,0,0,0-4.59,2,6.71,6.71,0,0,0-1.9,4.89v27.44a6.88,6.88,0,0,0,1.9,4.89A6.06,6.06,0,0,0,146.49,109Z"/><path class="cls-1" d="M170.81,119.51c-.46,0-.69-.2-.69-.61L170,60a.61.61,0,0,1,.69-.69h7.79l14.63,34.1L192.71,60q0-.69.78-.69h8.57c.35,0,.52.23.52.69l.09,59c0,.35-.15.52-.43.52h-7.62l-15-31.85.61,31.16q0,.69-.78.69Z"/><path class="cls-1" d="M226.21,119.51a15.85,15.85,0,0,1-8.52-2.38,18.27,18.27,0,0,1-6.19-6.32,16.69,16.69,0,0,1-2.34-8.7l.09-27.44A16.7,16.7,0,0,1,211.54,66a17.54,17.54,0,0,1,6.19-6.24,16.25,16.25,0,0,1,8.48-2.33,16,16,0,0,1,8.49,2.33A17.87,17.87,0,0,1,240.8,66a16.7,16.7,0,0,1,2.29,8.65l.09,27.44a16.94,16.94,0,0,1-2.3,8.7,17.87,17.87,0,0,1-6.14,6.32A15.88,15.88,0,0,1,226.21,119.51Zm0-10.47a6,6,0,0,0,4.55-2.12,6.92,6.92,0,0,0,1.94-4.81l-.08-27.44a6.92,6.92,0,0,0-1.82-4.84,5.94,5.94,0,0,0-4.59-2,6.18,6.18,0,0,0-4.59,2,6.71,6.71,0,0,0-1.9,4.89v27.44a6.88,6.88,0,0,0,1.9,4.89A6.06,6.06,0,0,0,226.21,109Z"/><path class="cls-1" d="M250.1,119.51c-.23,0-.34-.14-.34-.43l.08-59.38a.38.38,0,0,1,.43-.43h9.61a.38.38,0,0,1,.44.43l-.09,49.16h17.83a.38.38,0,0,1,.43.44v9.78a.38.38,0,0,1-.43.43Z"/><path class="cls-1" d="M284.47,119.51c-.24,0-.35-.14-.35-.43l.09-59.47a.3.3,0,0,1,.34-.34h27.79c.23,0,.34.14.34.43v9.69a.31.31,0,0,1-.34.35H294.59v13.5h17.75a.31.31,0,0,1,.34.35l.09,9.78a.31.31,0,0,1-.35.35H294.59v15.14h17.83c.23,0,.35.15.35.44v9.86a.31.31,0,0,1-.35.35Z"/><path class="cls-1" d="M316.67,119.08,327.4,59.61a.4.4,0,0,1,.43-.34h12.55a.41.41,0,0,1,.44.34l10.3,59.47c.05.29-.06.43-.35.43h-9.61c-.23,0-.37-.14-.43-.43l-1-6.32H328l-1,6.32c-.05.29-.2.43-.43.43H317C316.78,119.51,316.67,119.37,316.67,119.08Zm13.07-15.58h8.31L334.5,79.17,334,76l-.35,3.2Z"/><path class="cls-1" d="M357,119.51a.38.38,0,0,1-.43-.43l.17-59.47a.31.31,0,0,1,.35-.34h16.62q8,0,12.59,4.84t4.63,13.16a22.1,22.1,0,0,1-2.42,10.65,17.92,17.92,0,0,1-6.32,6.92,15.71,15.71,0,0,1-8.48,2.42h-6.58v21.82a.38.38,0,0,1-.43.43Zm10.13-32.72h6.58a5.94,5.94,0,0,0,4.8-2.64,10.93,10.93,0,0,0,2-6.88,8.33,8.33,0,0,0-1.82-5.54,6.21,6.21,0,0,0-5-2.16l-6.58.08Z"/><path class="cls-2" d="M132.92,45.74a29.64,29.64,0,0,1,2.9-1.51c-.23-.25-.45-.5-.69-.75a50,50,0,0,0-31.3-15.06l-.55-.05-.4-.38a51.59,51.59,0,0,0-4.32-3.66A49.66,49.66,0,0,0,68.42,14.24a50.23,50.23,0,0,0-49.83,45H30.27A38.51,38.51,0,0,1,67.43,25.86l1,0A38.1,38.1,0,0,1,91.57,33.6a38.72,38.72,0,0,1,6.51,6.22h1.06a38.47,38.47,0,0,1,27.2,11.26A30.49,30.49,0,0,1,132.92,45.74Z"/><path class="cls-1" d="M108.41,119.49V78.31a9.27,9.27,0,1,0-18.54,0v41.18H77.7V64.34a9.28,9.28,0,0,0-18.55,0v55.15H47.55V64.34A20.87,20.87,0,0,1,88.4,58.29L88.92,60l1.66-.75a20.54,20.54,0,0,1,8.56-1.85A20.9,20.9,0,0,1,120,78.31v41.18Z"/></svg>